#N canvas 932 256 464 543 12;
#X obj 189 44 t f f;
#X obj 189 74 >;
#X obj 189 104 sel 1;
#X obj 189 134 t b b;
#X obj 189 194 pack;
#X obj 189 224 line~;
#X obj 20 253 *~;
#X obj 78 253 *~;
#X obj 240 164 * 0.9;
#X obj 188 284 ==;
#X obj 188 314 sel 1;
#X obj 188 347 t b b b;
#X obj 124 314 r stop;
#X obj 124 347 r start;
#X obj 124 377 t b b;
#X msg 211 377 0;
#X msg 124 407 1;
#X obj 211 407 pack;
#X obj 211 437 line~;
#X obj 20 466 *~;
#X obj 78 466 *~;
#X obj 21 14 inlet~;
#X obj 78 14 inlet~;
#X obj 20 496 outlet~;
#X obj 78 496 outlet~;
#X obj 290 164 random-maxmin;
#X obj 252 377 random-maxmin;
#X obj 261 437 delay;
#X obj 293 407 + 500;
#X obj 261 467 s recordstop;
#X floatatom 232 15 5 0 0 0 - - - 0;
#X obj 189 14 r qf;
#X obj 188 254 r qf;
#X obj 300 134 r fadeMax;
#X obj 378 134 r fadeMin;
#X obj 276 347 r dfMax;
#X obj 340 347 r dfMin;
#X obj 230 254 r qfFinal;
#X floatatom 362 407 5 0 0 0 - - - 0;
#X obj 189 164 f 0.4;
#X connect 0 0 1 1;
#X connect 0 1 1 0;
#X connect 1 0 2 0;
#X connect 2 0 3 0;
#X connect 3 0 39 0;
#X connect 3 1 25 0;
#X connect 4 0 5 0;
#X connect 5 0 7 1;
#X connect 5 0 6 1;
#X connect 6 0 19 0;
#X connect 7 0 20 0;
#X connect 8 0 39 1;
#X connect 9 0 10 0;
#X connect 10 0 11 0;
#X connect 11 0 27 0;
#X connect 11 1 15 0;
#X connect 11 2 26 0;
#X connect 12 0 11 0;
#X connect 13 0 14 0;
#X connect 14 0 16 0;
#X connect 14 1 26 0;
#X connect 15 0 17 0;
#X connect 16 0 17 0;
#X connect 17 0 18 0;
#X connect 18 0 20 1;
#X connect 18 0 19 1;
#X connect 19 0 23 0;
#X connect 20 0 24 0;
#X connect 21 0 6 0;
#X connect 22 0 7 0;
#X connect 25 0 4 1;
#X connect 26 0 17 1;
#X connect 26 0 28 0;
#X connect 26 0 38 0;
#X connect 27 0 29 0;
#X connect 28 0 27 1;
#X connect 31 0 0 0;
#X connect 31 0 30 0;
#X connect 32 0 9 0;
#X connect 33 0 25 1;
#X connect 34 0 25 2;
#X connect 35 0 26 1;
#X connect 36 0 26 2;
#X connect 37 0 9 1;
#X connect 39 0 8 0;
#X connect 39 0 4 0;
