#N canvas 903 610 298 185 12;
#X obj 93 101 metro;
#X obj 143 101 random-maxmin;
#X obj 143 71 inlet;
#X obj 187 71 inlet;
#X obj 93 71 inlet;
#X text 151 47 max;
#X text 187 47 min;
#X text 91 19 bang start stop, f 5;
#X obj 93 131 outlet;
#X obj 143 131 outlet;
#X connect 0 0 1 0;
#X connect 0 0 8 0;
#X connect 1 0 0 1;
#X connect 1 0 9 0;
#X connect 2 0 1 1;
#X connect 3 0 1 2;
#X connect 4 0 0 0;
