#N canvas -7 0 955 1025 12;
#X obj 82 512 clone oscilador-variacao-intensidade-oitava 15;
#X obj 82 542 amplitude-controle;
#X obj 137 602 line~;
#X msg 137 572 \$1 20;
#X obj 82 643 dac~;
#X obj 241 572 r start;
#X msg 241 602 open -bytes 3 ModosEmIntensidades.wav \, start;
#X obj 289 643 r recordstop;
#X msg 241 643 stop;
#X obj 138 643 writesf~ 2;
#X obj 241 627 tgl 15 0 empty empty empty 17 7 0 10 #fcfcfc #000000
#000000 0 1;
#X obj 231 544 hsl 64 15 0 1 0 0 empty empty empty -2 -8 0 10 #fcfcfc
#000000 #000000 0 1;
#X obj 434 132 bng 15 250 50 0 empty empty empty 17 7 0 10 #fcfcfc
#000000 #000000;
#X floatatom 434 178 5 0 0 0 - - - 0;
#X floatatom 498 178 5 0 0 0 - - - 0;
#X obj 397 322 bng 15 250 50 0 empty empty empty 17 7 0 10 #fcfcfc
#000000 #000000;
#X floatatom 397 368 5 0 0 0 - - - 0;
#X floatatom 461 368 5 0 0 0 - - - 0;
#X obj 415 227 bng 15 250 50 0 empty empty empty 17 7 0 10 #fcfcfc
#000000 #000000;
#X floatatom 415 273 5 0 0 0 - - - 0;
#X floatatom 493 273 5 0 0 0 - - - 0;
#X floatatom 378 463 5 0 0 0 - - - 0;
#X obj 360 132 bng 15 250 50 0 empty empty empty 17 7 0 10 #fcfcfc
#000000 #000000;
#X obj 360 158 s start;
#X obj 360 79 bng 15 250 50 0 empty empty empty 17 7 0 10 #fcfcfc #000000
#000000;
#X obj 378 417 bng 15 250 50 0 empty empty empty 17 7 0 10 #fcfcfc
#000000 #000000;
#X obj 360 102 t b b b b b;
#X text 397 417 quantidade de freq final;
#X obj 415 292 s fadeMax;
#X obj 493 292 s fadeMin;
#X obj 378 482 s qfFinal;
#X obj 397 387 s ampMax;
#X obj 461 387 s ampMin;
#X text 452 131 duracao em cada conjunto de frequencias max min;
#X obj 434 197 s dfMax;
#X obj 498 197 s dfMin;
#X text 434 225 duracao de fade in e fade out max min;
#X text 419 321 fade amplitude max min;
#X obj 82 602 *~;
#X obj 205 602 *~;
#X obj 355 540 loadbang;
#X msg 308 540 1;
#X text 417 541 TODO ajustar controle de amplitude;
#X msg 397 348 5000;
#X msg 461 348 2500;
#X text 409 511 oitava \, numero do oscilador alternante \, frequencia
;
#X msg 434 158 25000;
#X msg 498 158 15000;
#X obj 82 182 f;
#X obj 124 182 + 1;
#X obj 197 182 sel 0;
#X obj 160 182 %;
#X obj 82 152 until;
#X obj 82 302 f;
#X obj 118 302 + 1;
#X obj 197 302 sel 0;
#X obj 82 242 until;
#X obj 137 392 f;
#X obj 105 362 t b b;
#X obj 105 422 pow;
#X msg 105 392 2;
#X obj 149 452 *;
#X obj 173 362 random 1e+07;
#X obj 173 392 + 1e+07;
#X obj 173 422 / 1e+07;
#X obj 82 482 pack f f f;
#X obj 154 302 % 15;
#X obj 82 332 t f b f;
#X obj 82 212 t b f b;
#X obj 178 92 * 1.2;
#X obj 178 122 int;
#X obj 142 92 f 1;
#X obj 178 152 clip 1;
#X obj 217 122 r qfFinal;
#X obj 197 272 delay;
#X obj 229 242 random-maxmin;
#X obj 261 212 r dfMax;
#X obj 317 212 r dfMin;
#X obj 82 62 t b b;
#X floatatom 247 273 5 0 0 0 - - - 0;
#X floatatom 235 153 5 0 0 0 - - - 0;
#X obj 82 32 r start;
#X obj 247 182 s qf;
#X msg 493 253 5000;
#X msg 415 253 10000;
#X obj 197 212 t b b;
#X msg 378 443 410;
#X text 492 40 I'm using this "Low-effort equal-loudness oscillator"
as an eq https://mikemorenodsp.github.io/equal-loudness-oscillator/
;
#X connect 0 0 1 0;
#X connect 0 1 1 1;
#X connect 1 0 38 0;
#X connect 1 1 39 0;
#X connect 2 0 38 1;
#X connect 2 0 39 1;
#X connect 3 0 2 0;
#X connect 5 0 6 0;
#X connect 6 0 9 0;
#X connect 7 0 10 0;
#X connect 8 0 9 0;
#X connect 10 0 8 0;
#X connect 11 0 3 0;
#X connect 12 0 47 0;
#X connect 12 0 46 0;
#X connect 13 0 34 0;
#X connect 14 0 35 0;
#X connect 15 0 43 0;
#X connect 15 0 44 0;
#X connect 16 0 31 0;
#X connect 17 0 32 0;
#X connect 18 0 83 0;
#X connect 18 0 84 0;
#X connect 19 0 28 0;
#X connect 20 0 29 0;
#X connect 21 0 30 0;
#X connect 22 0 23 0;
#X connect 24 0 26 0;
#X connect 25 0 86 0;
#X connect 26 0 22 0;
#X connect 26 1 25 0;
#X connect 26 2 15 0;
#X connect 26 3 18 0;
#X connect 26 4 12 0;
#X connect 38 0 9 0;
#X connect 39 0 9 1;
#X connect 40 0 41 0;
#X connect 41 0 11 0;
#X connect 43 0 16 0;
#X connect 44 0 17 0;
#X connect 46 0 13 0;
#X connect 47 0 14 0;
#X connect 48 0 49 0;
#X connect 48 0 68 0;
#X connect 49 0 51 0;
#X connect 50 0 52 1;
#X connect 50 0 85 0;
#X connect 51 0 50 0;
#X connect 51 0 48 1;
#X connect 52 0 48 0;
#X connect 53 0 54 0;
#X connect 53 0 67 0;
#X connect 54 0 66 0;
#X connect 55 0 56 1;
#X connect 56 0 53 0;
#X connect 57 0 59 1;
#X connect 58 0 60 0;
#X connect 58 1 57 0;
#X connect 59 0 61 0;
#X connect 60 0 59 0;
#X connect 61 0 65 2;
#X connect 62 0 63 0;
#X connect 63 0 64 0;
#X connect 64 0 61 1;
#X connect 65 0 0 0;
#X connect 66 0 53 1;
#X connect 66 0 55 0;
#X connect 67 0 65 0;
#X connect 67 1 58 0;
#X connect 67 2 57 1;
#X connect 68 0 56 0;
#X connect 68 1 65 1;
#X connect 68 2 62 0;
#X connect 69 0 70 0;
#X connect 69 0 71 1;
#X connect 70 0 72 0;
#X connect 71 0 69 0;
#X connect 72 0 51 1;
#X connect 72 0 80 0;
#X connect 72 0 82 0;
#X connect 73 0 72 2;
#X connect 74 0 78 0;
#X connect 75 0 74 1;
#X connect 75 0 79 0;
#X connect 76 0 75 1;
#X connect 77 0 75 2;
#X connect 78 0 52 0;
#X connect 78 1 71 0;
#X connect 81 0 78 0;
#X connect 83 0 20 0;
#X connect 84 0 19 0;
#X connect 85 0 74 0;
#X connect 85 1 75 0;
#X connect 86 0 21 0;
