#N canvas 210 175 501 492 12;
#X obj 311 22 inlet;
#X msg 124 202 \$1 20;
#X obj 124 232 line~;
#X obj 124 262 osc~;
#X obj 105 412 *~;
#X obj 141 412 line~;
#X obj 105 382 *~;
#X obj 26 232 sig~ 1;
#X obj 26 262 /~;
#X obj 26 292 powtodb~;
#X obj 26 322 dbtorms~;
#X obj 26 352 clip~ 0 1;
#X obj 357 142 random-maxmin;
#X obj 141 382 pack;
#X obj 328 412 *~;
#X obj 364 412 line~;
#X obj 364 382 pack;
#X obj 357 172 t f f;
#X obj 215 452 outlet~;
#X msg 346 202 \$1 20;
#X obj 346 232 line~;
#X obj 346 262 osc~;
#X obj 328 382 *~;
#X obj 249 232 sig~ 1;
#X obj 249 262 /~;
#X obj 249 292 powtodb~;
#X obj 249 322 dbtorms~;
#X obj 249 352 clip~ 0 1;
#X obj 177 322 + 1;
#X obj 213 322 % 2;
#X obj 141 352 t f f;
#X obj 141 322 f 1;
#X obj 400 322 + 1;
#X obj 436 322 % 2;
#X obj 364 352 t f f;
#X obj 364 322 f;
#X obj 124 172 route 0 1;
#X obj 160 82 + 1;
#X obj 196 82 % 2;
#X obj 124 112 t f f;
#X obj 124 82 f;
#X obj 124 142 pack;
#X obj 311 112 t b b b;
#X obj 311 52 t b b f;
#X obj 401 112 r fadeMax;
#X obj 401 82 r fadeMin;
#X connect 0 0 43 0;
#X connect 1 0 2 0;
#X connect 2 0 3 0;
#X connect 2 0 8 1;
#X connect 3 0 6 1;
#X connect 4 0 18 0;
#X connect 5 0 4 1;
#X connect 6 0 4 0;
#X connect 7 0 8 0;
#X connect 8 0 9 0;
#X connect 9 0 10 0;
#X connect 10 0 11 0;
#X connect 11 0 6 0;
#X connect 12 0 17 0;
#X connect 13 0 5 0;
#X connect 14 0 18 0;
#X connect 15 0 14 1;
#X connect 16 0 15 0;
#X connect 17 0 13 1;
#X connect 17 1 16 1;
#X connect 19 0 20 0;
#X connect 20 0 21 0;
#X connect 20 0 24 1;
#X connect 21 0 22 1;
#X connect 22 0 14 0;
#X connect 23 0 24 0;
#X connect 24 0 25 0;
#X connect 25 0 26 0;
#X connect 26 0 27 0;
#X connect 27 0 22 0;
#X connect 28 0 29 0;
#X connect 29 0 31 1;
#X connect 30 0 13 0;
#X connect 30 1 28 0;
#X connect 31 0 30 0;
#X connect 32 0 33 0;
#X connect 33 0 35 1;
#X connect 34 0 16 0;
#X connect 34 1 32 0;
#X connect 35 0 34 0;
#X connect 36 0 1 0;
#X connect 36 1 19 0;
#X connect 37 0 38 0;
#X connect 38 0 40 1;
#X connect 39 0 41 0;
#X connect 39 1 37 0;
#X connect 40 0 39 0;
#X connect 41 0 36 0;
#X connect 42 0 31 0;
#X connect 42 1 35 0;
#X connect 42 2 12 0;
#X connect 43 0 42 0;
#X connect 43 1 40 0;
#X connect 43 2 41 1;
#X connect 44 0 12 1;
#X connect 45 0 12 2;
