#N canvas 321 425 290 303 12;
#X obj 151 163 -;
#X obj 112 193 random;
#X obj 112 223 +;
#X obj 151 133 + 1;
#X obj 151 103 f;
#X obj 151 73 t b f;
#X obj 111 43 inlet;
#X obj 161 43 inlet;
#X obj 101 163 inlet;
#X obj 112 253 outlet;
#X text 169 21 min;
#X text 100 140 bang;
#X text 116 21 max;
#X connect 0 0 1 1;
#X connect 1 0 2 0;
#X connect 2 0 9 0;
#X connect 3 0 0 0;
#X connect 4 0 3 0;
#X connect 5 0 4 0;
#X connect 5 1 2 1;
#X connect 5 1 0 1;
#X connect 6 0 4 0;
#X connect 7 0 5 0;
#X connect 8 0 1 0;
