#N canvas 932 529 525 461 12;
#X obj 213 171 random 1e+07;
#X obj 213 201 / 1e+07;
#X obj 213 231 pack;
#X obj 213 261 line~;
#X obj 213 321 outlet~;
#X obj 213 291 *~;
#X obj 263 261 inlet~;
#X obj 233 81 r start;
#X obj 213 111 r stop;
#X obj 278 111 r ampMax;
#X obj 343 111 r ampMin;
#X obj 213 141 metro-random-maxmin;
#X connect 0 0 1 0;
#X connect 1 0 2 0;
#X connect 2 0 3 0;
#X connect 3 0 5 1;
#X connect 5 0 4 0;
#X connect 6 0 5 0;
#X connect 7 0 11 0;
#X connect 8 0 11 0;
#X connect 9 0 11 1;
#X connect 10 0 11 2;
#X connect 11 0 0 0;
#X connect 11 1 2 1;
